<svg width="562" height="649" viewBox="0 0 562 649" fill="none" xmlns="http://www.w3.org/2000/svg">
<g id="tblcheck">
<g id="hex background">
<path id="Vector" d="M5.78 165.21V482.93L280.93 641.79L556.08 482.93V165.21L280.93 6.35001L5.78 165.21Z" fill="#D9DCE7"/>
</g>
<path id="hex border" d="M5.78 165.21V482.93L280.93 641.79L556.08 482.93V165.21L280.93 6.35001L5.78 165.21Z" stroke="#3F4764" stroke-width="11"/>
<g id="table">
<g id="Group">
<g id="Group_2">
<path id="Vector_2" d="M421 162.131H142V216.718H421V162.131Z" fill="#5E6A97"/>
</g>
</g>
<g id="Group_3">
<g id="Group_4">
<path id="Vector_3" d="M220.848 234.913H142V283.434H220.848V234.913Z" fill="#5E6A97"/>
</g>
</g>
<g id="Group_5">
<g id="Group_6">
<path id="Vector_4" d="M220.848 368.348H142V416.869H220.848V368.348Z" fill="#5E6A97"/>
</g>
</g>
<g id="Group_7">
<g id="Group_8">
<path id="Vector_5" d="M220.848 301.63H142V350.152H220.848V301.63Z" fill="#5E6A97"/>
</g>
</g>
<g id="Group_9">
<g id="Group_10">
<path id="Vector_6" d="M323.957 234.913H239.044V283.434H323.957V234.913Z" fill="#5E6A97"/>
</g>
</g>
<g id="Group_11">
<g id="Group_12">
<path id="Vector_7" d="M323.957 368.348H239.044V416.869H323.957V368.348Z" fill="#5E6A97"/>
</g>
</g>
<g id="Group_13">
<g id="Group_14">
<path id="Vector_8" d="M323.957 301.63H239.044V350.152H323.957V301.63Z" fill="#5E6A97"/>
</g>
</g>
<g id="Group_15">
<g id="Group_16">
<path id="Vector_9" d="M421 234.913H342.152V283.434H421V234.913Z" fill="#5E6A97"/>
</g>
</g>
<g id="Group_17">
<g id="Group_18">
<path id="Vector_10" d="M421 368.348H342.152V416.869H421V368.348Z" fill="#5E6A97"/>
</g>
</g>
<g id="Group_19">
<g id="Group_20">
<path id="Vector_11" d="M421 301.63H342.152V350.152H421V301.63Z" fill="#5E6A97"/>
</g>
</g>
</g>
<path id="www.rstudio.com" d="M285.494 627.994L278.296 620.926L279.75 620.086L283.808 624.233C284.133 624.584 284.447 624.927 284.747 625.261C285.048 625.595 285.352 625.936 285.66 626.282L285.729 626.242C285.595 625.796 285.464 625.355 285.336 624.921C285.202 624.475 285.073 624.026 284.951 623.573L283.44 617.956L284.825 617.156L288.952 621.263C289.289 621.607 289.614 621.943 289.926 622.271C290.25 622.592 290.572 622.922 290.891 623.262L290.96 623.222C290.826 622.776 290.689 622.339 290.55 621.911C290.411 621.483 290.27 621.041 290.13 620.583L288.549 615.006L289.9 614.226L292.509 623.944L290.777 624.944L286.954 621.123C286.617 620.779 286.289 620.437 285.97 620.098C285.662 619.752 285.333 619.396 284.983 619.028L284.913 619.068C285.068 619.549 285.215 620.018 285.356 620.476C285.49 620.921 285.617 621.38 285.734 621.851L287.157 627.034L285.494 627.994ZM297.32 621.166L290.122 614.098L291.576 613.258L295.634 617.406C295.959 617.756 296.273 618.099 296.573 618.433C296.874 618.768 297.178 619.108 297.486 619.454L297.555 619.414C297.421 618.968 297.29 618.528 297.162 618.093C297.028 617.647 296.899 617.198 296.777 616.746L295.266 611.128L296.651 610.328L300.778 614.436C301.115 614.78 301.44 615.116 301.752 615.443C302.076 615.764 302.398 616.095 302.717 616.434L302.786 616.394C302.652 615.948 302.515 615.511 302.376 615.083C302.237 614.656 302.096 614.213 301.956 613.756L300.375 608.178L301.726 607.398L304.335 617.116L302.603 618.116L298.78 614.296C298.443 613.951 298.115 613.61 297.796 613.27C297.488 612.925 297.159 612.568 296.809 612.201L296.739 612.241C296.894 612.721 297.041 613.19 297.182 613.648C297.316 614.094 297.442 614.552 297.56 615.023L298.983 620.206L297.32 621.166ZM309.146 614.338L301.948 607.271L303.402 606.431L307.46 610.578C307.785 610.929 308.098 611.271 308.399 611.606C308.7 611.94 309.004 612.28 309.312 612.626L309.381 612.586C309.247 612.14 309.116 611.7 308.988 611.266C308.854 610.82 308.725 610.37 308.603 609.918L307.092 604.301L308.477 603.501L312.604 607.608C312.941 607.952 313.266 608.288 313.578 608.616C313.902 608.937 314.224 609.267 314.543 609.606L314.612 609.566C314.478 609.12 314.341 608.683 314.202 608.256C314.063 607.828 313.922 607.385 313.781 606.928L312.201 601.351L313.552 600.571L316.161 610.288L314.429 611.288L310.606 607.468C310.269 607.124 309.941 606.782 309.622 606.443C309.314 606.097 308.985 605.74 308.635 605.373L308.565 605.413C308.72 605.894 308.867 606.363 309.008 606.82C309.142 607.266 309.268 607.724 309.386 608.195L310.809 613.378L309.146 614.338ZM319.792 608.469C319.504 608.635 319.199 608.681 318.878 608.604C318.561 608.51 318.313 608.307 318.133 607.995C317.94 607.66 317.885 607.338 317.968 607.028C318.056 606.7 318.244 606.453 318.532 606.286C318.81 606.126 319.106 606.094 319.423 606.188C319.744 606.264 320.001 606.47 320.194 606.805C320.374 607.117 320.42 607.436 320.333 607.764C320.25 608.074 320.07 608.309 319.792 608.469ZM322.635 606.551L317.775 598.133L318.952 597.453L319.954 598.907L320.006 598.877C319.988 598.179 320.091 597.558 320.315 597.013C320.551 596.461 320.911 596.045 321.396 595.765C321.731 595.572 322.064 595.456 322.397 595.418L322.839 596.825C322.674 596.859 322.527 596.898 322.398 596.941C322.27 596.985 322.119 597.057 321.945 597.157C321.587 597.363 321.295 597.724 321.07 598.24C320.855 598.748 320.81 599.444 320.935 600.327L324.055 605.731L322.635 606.551ZM330.285 602.411C329.685 602.757 329.05 602.978 328.38 603.072C327.711 603.166 327.078 603.162 326.48 603.06L326.64 601.698C327.183 601.785 327.698 601.81 328.186 601.775C328.685 601.733 329.189 601.566 329.697 601.272C330.251 600.952 330.594 600.585 330.724 600.171C330.855 599.757 330.813 599.365 330.6 598.996C330.473 598.777 330.305 598.619 330.097 598.524C329.888 598.429 329.658 598.377 329.406 598.369C329.16 598.342 328.894 598.349 328.61 598.39C328.326 598.431 328.042 598.471 327.757 598.512C327.397 598.582 327.03 598.64 326.657 598.686C326.276 598.721 325.912 598.716 325.563 598.671C325.218 598.608 324.898 598.493 324.601 598.326C324.304 598.158 324.053 597.896 323.846 597.538C323.653 597.203 323.536 596.854 323.496 596.492C323.462 596.112 323.505 595.748 323.628 595.4C323.755 595.034 323.965 594.69 324.256 594.368C324.541 594.034 324.908 593.737 325.358 593.477C325.89 593.171 326.428 592.983 326.973 592.914C327.53 592.839 328.047 592.841 328.524 592.92L328.368 594.211C327.953 594.158 327.549 594.152 327.158 594.194C326.766 594.235 326.385 594.362 326.016 594.576C325.485 594.882 325.162 595.23 325.048 595.62C324.945 596.002 324.987 596.355 325.174 596.678C325.287 596.875 325.439 597.018 325.63 597.108C325.814 597.186 326.026 597.233 326.266 597.249C326.499 597.253 326.752 597.238 327.025 597.203C327.302 597.151 327.589 597.101 327.885 597.053C328.252 596.995 328.622 596.943 328.995 596.897C329.381 596.844 329.751 596.846 330.107 596.902C330.456 596.947 330.786 597.064 331.096 597.255C331.417 597.439 331.692 597.727 331.918 598.119C332.118 598.466 332.236 598.829 332.27 599.209C332.317 599.583 332.274 599.962 332.141 600.346C332.021 600.724 331.801 601.089 331.482 601.443C331.18 601.801 330.782 602.124 330.285 602.411ZM337.047 598.507C336.597 598.767 336.176 598.917 335.784 598.959C335.404 598.994 335.046 598.946 334.709 598.817C334.385 598.681 334.082 598.464 333.801 598.164C333.52 597.864 333.26 597.506 333.02 597.091L330.33 592.431L329.083 593.151L328.463 592.078L329.729 591.231L328.542 588.775L329.737 588.085L331.097 590.441L333.366 589.131L334.036 590.291L331.767 591.601L334.467 596.278C334.767 596.798 335.093 597.148 335.445 597.33C335.801 597.494 336.221 597.436 336.706 597.156C336.857 597.069 337.005 596.953 337.151 596.807C337.298 596.661 337.424 596.519 337.529 596.381L338.426 597.295C338.242 597.509 338.028 597.725 337.784 597.943C337.558 598.165 337.313 598.353 337.047 598.507ZM342.103 595.588C341.202 596.108 340.384 596.211 339.648 595.896C338.924 595.575 338.249 594.872 337.622 593.787L334.542 588.452L335.98 587.622L338.95 592.766C339.41 593.563 339.864 594.07 340.314 594.288C340.768 594.488 341.272 594.428 341.826 594.108C342.265 593.855 342.588 593.522 342.797 593.109C342.998 592.685 343.158 592.108 343.275 591.378L339.825 585.402L341.245 584.582L346.105 593L344.928 593.68L344.046 592.434L343.994 592.464C343.868 593.152 343.666 593.762 343.387 594.292C343.12 594.816 342.692 595.248 342.103 595.588ZM351.334 590.258C350.272 590.872 349.203 590.981 348.128 590.585C347.064 590.183 346.126 589.278 345.312 587.869C344.919 587.188 344.664 586.519 344.547 585.863C344.435 585.189 344.436 584.564 344.551 583.99C344.666 583.416 344.883 582.898 345.201 582.437C345.52 581.975 345.922 581.605 346.407 581.325C346.892 581.045 347.364 580.888 347.822 580.855C348.279 580.821 348.78 580.848 349.323 580.935L348.423 579.537L346.553 576.298L347.991 575.468L355.111 587.8L353.933 588.48L353.242 587.563L353.19 587.593C353.042 588.11 352.818 588.616 352.52 589.112C352.226 589.589 351.83 589.972 351.334 590.258ZM350.956 588.883C351.348 588.656 351.664 588.351 351.904 587.966C352.137 587.57 352.314 587.075 352.433 586.483L349.893 582.083C349.349 581.967 348.872 581.941 348.464 582.008C348.061 582.056 347.686 582.18 347.34 582.38C347.005 582.573 346.734 582.837 346.527 583.172C346.325 583.489 346.198 583.855 346.145 584.271C346.085 584.674 346.106 585.109 346.205 585.575C346.305 586.041 346.495 586.517 346.775 587.002C347.361 588.018 348.02 588.692 348.751 589.024C349.482 589.357 350.217 589.31 350.956 588.883ZM357.34 586.514L352.48 578.096L353.9 577.276L358.76 585.694L357.34 586.514ZM352.207 575.944C351.93 576.104 351.644 576.154 351.347 576.094C351.063 576.027 350.843 575.861 350.69 575.596C350.53 575.319 350.496 575.046 350.587 574.778C350.684 574.491 350.87 574.268 351.147 574.108C351.425 573.948 351.705 573.901 351.99 573.968C352.28 574.016 352.505 574.179 352.665 574.456C352.818 574.721 352.847 574.997 352.75 575.284C352.665 575.564 352.485 575.784 352.207 575.944ZM364.39 582.72C363.87 583.02 363.317 583.209 362.73 583.286C362.155 583.356 361.582 583.31 361.01 583.147C360.433 582.973 359.877 582.678 359.344 582.262C358.817 581.827 358.353 581.264 357.953 580.571C357.546 579.867 357.29 579.183 357.184 578.52C357.084 577.84 357.102 577.205 357.24 576.617C357.378 576.03 357.622 575.504 357.97 575.041C358.33 574.572 358.77 574.187 359.29 573.887C359.809 573.587 360.357 573.402 360.932 573.331C361.519 573.254 362.101 573.303 362.679 573.477C363.257 573.652 363.81 573.956 364.338 574.39C364.871 574.806 365.34 575.367 365.747 576.071C366.147 576.764 366.397 577.451 366.498 578.132C366.603 578.794 366.587 579.42 366.449 580.007C366.304 580.583 366.052 581.106 365.692 581.576C365.343 582.039 364.909 582.42 364.39 582.72ZM363.71 581.543C364.068 581.336 364.353 581.071 364.567 580.747C364.774 580.413 364.901 580.046 364.949 579.649C365.002 579.234 364.973 578.797 364.861 578.337C364.75 577.878 364.555 577.406 364.275 576.921C363.995 576.436 363.684 576.031 363.341 575.705C362.993 575.367 362.625 575.117 362.239 574.955C361.865 574.787 361.484 574.714 361.097 574.737C360.703 574.749 360.328 574.858 359.97 575.065C359.612 575.271 359.329 575.542 359.123 575.877C358.909 576.201 358.776 576.57 358.723 576.985C358.682 577.394 358.72 577.834 358.838 578.305C358.949 578.764 359.145 579.236 359.425 579.721C359.705 580.206 360.016 580.611 360.358 580.937C360.7 581.263 361.059 581.511 361.433 581.679C361.812 581.83 362.199 581.899 362.593 581.887C362.979 581.864 363.352 581.749 363.71 581.543ZM370.473 579.208C370.185 579.375 369.88 579.42 369.558 579.344C369.242 579.249 368.994 579.046 368.814 578.734C368.621 578.399 368.565 578.077 368.648 577.768C368.736 577.44 368.925 577.192 369.213 577.026C369.49 576.866 369.787 576.833 370.103 576.928C370.425 577.004 370.682 577.209 370.875 577.544C371.055 577.856 371.101 578.176 371.013 578.504C370.93 578.813 370.75 579.048 370.473 579.208ZM376.575 575.685C376.021 576.005 375.444 576.207 374.846 576.291C374.248 576.375 373.663 576.335 373.092 576.172C372.525 575.991 371.981 575.689 371.46 575.267C370.944 574.826 370.486 574.259 370.086 573.566C369.679 572.862 369.429 572.175 369.335 571.505C369.234 570.824 369.259 570.187 369.408 569.592C369.558 568.998 369.818 568.463 370.19 567.986C370.573 567.503 371.036 567.105 371.579 566.792C372.133 566.472 372.663 566.297 373.169 566.266C373.675 566.236 374.155 566.267 374.608 566.359L374.421 567.714C374.052 567.635 373.689 567.606 373.331 567.628C372.986 567.642 372.646 567.746 372.311 567.94C371.93 568.16 371.624 568.444 371.394 568.792C371.158 569.129 371.007 569.508 370.943 569.93C370.879 570.352 370.894 570.805 370.989 571.29C371.088 571.756 371.278 572.231 371.558 572.716C371.838 573.201 372.155 573.603 372.509 573.922C372.862 574.242 373.232 574.482 373.618 574.644C374.009 574.788 374.413 574.847 374.83 574.822C375.24 574.786 375.635 574.658 376.016 574.438C376.409 574.211 376.72 573.923 376.95 573.575C377.185 573.209 377.368 572.833 377.501 572.449L378.674 573.042C378.486 573.596 378.218 574.105 377.87 574.568C377.515 575.02 377.083 575.392 376.575 575.685ZM383.444 571.72C382.924 572.02 382.371 572.208 381.784 572.285C381.209 572.356 380.636 572.309 380.064 572.147C379.486 571.972 378.931 571.677 378.398 571.261C377.87 570.827 377.407 570.263 377.007 569.57C376.6 568.866 376.344 568.182 376.238 567.52C376.138 566.839 376.156 566.204 376.294 565.617C376.432 565.029 376.676 564.504 377.024 564.041C377.384 563.571 377.824 563.186 378.344 562.886C378.863 562.586 379.411 562.401 379.986 562.331C380.573 562.254 381.155 562.302 381.733 562.477C382.311 562.651 382.864 562.955 383.392 563.39C383.924 563.806 384.394 564.366 384.801 565.07C385.201 565.763 385.451 566.45 385.552 567.131C385.657 567.794 385.641 568.419 385.503 569.007C385.358 569.583 385.106 570.106 384.746 570.575C384.397 571.038 383.963 571.42 383.444 571.72ZM382.764 570.542C383.122 570.335 383.407 570.07 383.621 569.747C383.828 569.412 383.955 569.046 384.003 568.649C384.056 568.233 384.027 567.796 383.915 567.337C383.804 566.877 383.609 566.405 383.329 565.92C383.049 565.435 382.737 565.03 382.395 564.704C382.047 564.366 381.679 564.117 381.293 563.955C380.919 563.786 380.538 563.713 380.151 563.736C379.757 563.748 379.382 563.857 379.024 564.064C378.666 564.271 378.383 564.542 378.176 564.876C377.963 565.2 377.83 565.569 377.777 565.985C377.736 566.393 377.774 566.833 377.892 567.304C378.003 567.763 378.199 568.235 378.479 568.72C378.759 569.205 379.07 569.611 379.412 569.937C379.754 570.263 380.112 570.51 380.487 570.679C380.866 570.829 381.253 570.898 381.646 570.887C382.033 570.863 382.406 570.749 382.764 570.542ZM388.831 568.332L383.971 559.914L385.149 559.234L385.971 560.377L386.022 560.347C386.159 559.729 386.364 559.164 386.638 558.652C386.916 558.122 387.31 557.71 387.818 557.416C388.464 557.043 389.05 556.897 389.575 556.979C390.104 557.043 390.602 557.279 391.069 557.687C391.228 556.949 391.443 556.309 391.715 555.767C391.992 555.206 392.39 554.776 392.91 554.476C393.776 553.976 394.577 553.883 395.313 554.198C396.06 554.505 396.747 555.202 397.374 556.287L400.454 561.622L399.033 562.442L396.063 557.298C395.603 556.501 395.146 556.003 394.692 555.803C394.231 555.592 393.736 555.639 393.204 555.946C392.569 556.313 392.115 557.152 391.841 558.465L395.361 564.562L393.941 565.382L390.971 560.238C390.511 559.441 390.054 558.943 389.6 558.743C389.139 558.532 388.638 558.583 388.095 558.896C387.46 559.263 387.005 560.102 386.732 561.415L390.252 567.512L388.831 568.332Z" fill="#3F4764"/>
<path id="tblcheck_2" d="M127.861 513.2C125.261 513.2 123.061 512.8 121.261 512C119.528 511.2 118.095 510.1 116.961 508.7C115.895 507.3 115.128 505.6 114.661 503.6C114.195 501.6 113.961 499.4 113.961 497V470.1H106.761V463.9L114.361 463.4L115.361 449.8H122.261V463.4H135.361V470.1H122.261V497.1C122.261 500.1 122.795 502.433 123.861 504.1C124.995 505.7 126.961 506.5 129.761 506.5C130.628 506.5 131.561 506.367 132.561 506.1C133.561 505.833 134.461 505.533 135.261 505.2L136.861 511.4C135.528 511.867 134.061 512.267 132.461 512.6C130.928 513 129.395 513.2 127.861 513.2ZM168.85 513.2C166.584 513.2 164.217 512.667 161.75 511.6C159.35 510.467 157.084 508.933 154.95 507H154.65L153.95 512H147.35V440.8H155.55V460.2L155.35 469C157.55 467.067 159.95 465.467 162.55 464.2C165.15 462.867 167.817 462.2 170.55 462.2C173.684 462.2 176.45 462.8 178.85 464C181.25 465.133 183.25 466.8 184.85 469C186.517 471.133 187.75 473.733 188.55 476.8C189.417 479.8 189.85 483.167 189.85 486.9C189.85 491.033 189.284 494.733 188.15 498C187.017 501.267 185.484 504.033 183.55 506.3C181.617 508.567 179.384 510.3 176.85 511.5C174.317 512.633 171.65 513.2 168.85 513.2ZM167.45 506.3C169.45 506.3 171.284 505.867 172.95 505C174.684 504.067 176.15 502.8 177.35 501.2C178.617 499.533 179.584 497.5 180.25 495.1C180.984 492.7 181.35 490 181.35 487C181.35 484.333 181.117 481.9 180.65 479.7C180.184 477.5 179.417 475.633 178.35 474.1C177.35 472.5 176.017 471.267 174.35 470.4C172.75 469.533 170.817 469.1 168.55 469.1C164.617 469.1 160.284 471.3 155.55 475.7V501.2C157.684 503.067 159.784 504.4 161.85 505.2C163.984 505.933 165.85 506.3 167.45 506.3ZM212.324 513.2C209.19 513.2 206.957 512.267 205.624 510.4C204.29 508.533 203.624 505.8 203.624 502.2V440.8H211.824V502.8C211.824 504.133 212.057 505.067 212.524 505.6C212.99 506.133 213.524 506.4 214.124 506.4C214.39 506.4 214.624 506.4 214.824 506.4C215.09 506.4 215.457 506.333 215.924 506.2L217.024 512.4C216.49 512.667 215.857 512.867 215.124 513C214.39 513.133 213.457 513.2 212.324 513.2ZM249.312 513.2C246.112 513.2 243.112 512.633 240.312 511.5C237.512 510.367 235.079 508.733 233.012 506.6C231.012 504.4 229.412 501.733 228.212 498.6C227.079 495.4 226.512 491.8 226.512 487.8C226.512 483.733 227.145 480.133 228.412 477C229.679 473.8 231.379 471.1 233.512 468.9C235.645 466.7 238.112 465.033 240.912 463.9C243.779 462.767 246.779 462.2 249.912 462.2C253.112 462.2 255.845 462.767 258.112 463.9C260.379 465.033 262.379 466.367 264.112 467.9L259.912 473.3C258.512 472.033 257.012 471 255.412 470.2C253.879 469.4 252.145 469 250.212 469C248.012 469 245.979 469.467 244.112 470.4C242.245 471.267 240.645 472.533 239.312 474.2C237.979 475.867 236.912 477.867 236.112 480.2C235.379 482.467 235.012 485 235.012 487.8C235.012 490.6 235.379 493.133 236.112 495.4C236.845 497.667 237.845 499.633 239.112 501.3C240.445 502.9 242.045 504.167 243.912 505.1C245.779 505.967 247.812 506.4 250.012 506.4C252.279 506.4 254.345 505.933 256.212 505C258.145 504 259.879 502.833 261.412 501.5L265.012 507C262.812 508.933 260.379 510.467 257.712 511.6C255.045 512.667 252.245 513.2 249.312 513.2ZM276.718 512V440.8H284.918V460.2L284.618 470.2C286.951 468 289.384 466.133 291.918 464.6C294.451 463 297.418 462.2 300.818 462.2C305.951 462.2 309.684 463.8 312.018 467C314.418 470.2 315.618 474.933 315.618 481.2V512H307.418V482.3C307.418 477.7 306.684 474.4 305.218 472.4C303.751 470.333 301.418 469.3 298.218 469.3C295.684 469.3 293.451 469.933 291.518 471.2C289.584 472.467 287.384 474.333 284.918 476.8V512H276.718ZM351.812 513.2C348.545 513.2 345.479 512.633 342.612 511.5C339.812 510.3 337.345 508.633 335.212 506.5C333.145 504.3 331.512 501.633 330.312 498.5C329.112 495.367 328.512 491.8 328.512 487.8C328.512 483.8 329.112 480.233 330.312 477.1C331.579 473.9 333.212 471.2 335.212 469C337.279 466.8 339.612 465.133 342.212 464C344.812 462.8 347.512 462.2 350.312 462.2C353.379 462.2 356.112 462.733 358.512 463.8C360.979 464.867 363.012 466.4 364.612 468.4C366.279 470.4 367.545 472.8 368.412 475.6C369.279 478.4 369.712 481.533 369.712 485C369.712 485.867 369.679 486.733 369.612 487.6C369.612 488.4 369.545 489.1 369.412 489.7H336.612C336.945 494.9 338.545 499.033 341.412 502.1C344.345 505.1 348.145 506.6 352.812 506.6C355.145 506.6 357.279 506.267 359.212 505.6C361.212 504.867 363.112 503.933 364.912 502.8L367.812 508.2C365.679 509.533 363.312 510.7 360.712 511.7C358.112 512.7 355.145 513.2 351.812 513.2ZM336.512 483.8H362.512C362.512 478.867 361.445 475.133 359.312 472.6C357.245 470 354.312 468.7 350.512 468.7C348.779 468.7 347.112 469.033 345.512 469.7C343.979 470.367 342.579 471.367 341.312 472.7C340.045 473.967 338.979 475.533 338.112 477.4C337.312 479.267 336.779 481.4 336.512 483.8ZM401.921 513.2C398.721 513.2 395.721 512.633 392.921 511.5C390.121 510.367 387.688 508.733 385.621 506.6C383.621 504.4 382.021 501.733 380.821 498.6C379.688 495.4 379.121 491.8 379.121 487.8C379.121 483.733 379.755 480.133 381.021 477C382.288 473.8 383.988 471.1 386.121 468.9C388.255 466.7 390.721 465.033 393.521 463.9C396.388 462.767 399.388 462.2 402.521 462.2C405.721 462.2 408.455 462.767 410.721 463.9C412.988 465.033 414.988 466.367 416.721 467.9L412.521 473.3C411.121 472.033 409.621 471 408.021 470.2C406.488 469.4 404.755 469 402.821 469C400.621 469 398.588 469.467 396.721 470.4C394.855 471.267 393.255 472.533 391.921 474.2C390.588 475.867 389.521 477.867 388.721 480.2C387.988 482.467 387.621 485 387.621 487.8C387.621 490.6 387.988 493.133 388.721 495.4C389.455 497.667 390.455 499.633 391.721 501.3C393.055 502.9 394.655 504.167 396.521 505.1C398.388 505.967 400.421 506.4 402.621 506.4C404.888 506.4 406.955 505.933 408.821 505C410.755 504 412.488 502.833 414.021 501.5L417.621 507C415.421 508.933 412.988 510.467 410.321 511.6C407.655 512.667 404.855 513.2 401.921 513.2ZM429.327 512V440.8H437.427V489H437.727L458.427 463.4H467.527L451.227 482.9L469.727 512H460.727L446.527 488.6L437.427 499.2V512H429.327Z" fill="#3F4764"/>
<mask id="mask0_120:139" style="mask-type:alpha" maskUnits="userSpaceOnUse" x="0" y="-1" width="562" height="650">
<path id="hex border_2" d="M5.78 165.21V482.93L280.93 641.79L556.08 482.93V165.21L280.93 6.35001L5.78 165.21Z" fill="white" stroke="#5E6A97" stroke-width="11"/>
</mask>
<g mask="url(#mask0_120:139)">
<path id="check mark" d="M351.175 142.342L345.847 137.094L340.583 142.408L312.354 170.908L307.174 176.138L312.307 181.415L377.327 248.25L382.655 253.726L388.032 248.298L528.473 106.498L533.522 101.4L528.653 96.1302L499.978 65.0957L494.657 59.3375L489.14 64.9078L382.191 172.894L351.175 142.342Z" fill="#368180" stroke="#D9DCE7" stroke-width="15"/>
</g>
</g>
</svg>
