<svg width="648" height="648" viewBox="0 0 648 648" fill="none" xmlns="http://www.w3.org/2000/svg">
<g id="tblcheck" clip-path="url(#clip0_2:2)">
<g id="hex background">
<path id="Vector" d="M48.78 165.21V482.93L323.93 641.79L599.08 482.93V165.21L323.93 6.35001L48.78 165.21Z" fill="#D9DCE7"/>
</g>
<path id="hex border" d="M48.78 165.21V482.93L323.93 641.79L599.08 482.93V165.21L323.93 6.35001L48.78 165.21Z" stroke="#3F4764" stroke-width="11"/>
<g id="table">
<g id="Group">
<g id="Group_2">
<path id="Vector_2" d="M464 162.131H185V216.718H464V162.131Z" fill="#5E6A97"/>
</g>
</g>
<g id="Group_3">
<g id="Group_4">
<path id="Vector_3" d="M263.848 234.913H185V283.434H263.848V234.913Z" fill="#5E6A97"/>
</g>
</g>
<g id="Group_5">
<g id="Group_6">
<path id="Vector_4" d="M263.848 368.348H185V416.869H263.848V368.348Z" fill="#5E6A97"/>
</g>
</g>
<g id="Group_7">
<g id="Group_8">
<path id="Vector_5" d="M263.848 301.63H185V350.152H263.848V301.63Z" fill="#5E6A97"/>
</g>
</g>
<g id="Group_9">
<g id="Group_10">
<path id="Vector_6" d="M366.956 234.913H282.044V283.434H366.956V234.913Z" fill="#5E6A97"/>
</g>
</g>
<g id="Group_11">
<g id="Group_12">
<path id="Vector_7" d="M366.956 368.348H282.044V416.869H366.956V368.348Z" fill="#5E6A97"/>
</g>
</g>
<g id="Group_13">
<g id="Group_14">
<path id="Vector_8" d="M366.956 301.63H282.044V350.152H366.956V301.63Z" fill="#5E6A97"/>
</g>
</g>
<g id="Group_15">
<g id="Group_16">
<path id="Vector_9" d="M464 234.913H385.152V283.434H464V234.913Z" fill="#5E6A97"/>
</g>
</g>
<g id="Group_17">
<g id="Group_18">
<path id="Vector_10" d="M464 368.348H385.152V416.869H464V368.348Z" fill="#5E6A97"/>
</g>
</g>
<g id="Group_19">
<g id="Group_20">
<path id="Vector_11" d="M464 301.63H385.152V350.152H464V301.63Z" fill="#5E6A97"/>
</g>
</g>
</g>
<path id="tblcheck_2" d="M170.861 513.2C168.261 513.2 166.061 512.8 164.261 512C162.528 511.2 161.095 510.1 159.961 508.7C158.895 507.3 158.128 505.6 157.661 503.6C157.195 501.6 156.961 499.4 156.961 497V470.1H149.761V463.9L157.361 463.4L158.361 449.8H165.261V463.4H178.361V470.1H165.261V497.1C165.261 500.1 165.795 502.433 166.861 504.1C167.995 505.7 169.961 506.5 172.761 506.5C173.628 506.5 174.561 506.367 175.561 506.1C176.561 505.833 177.461 505.533 178.261 505.2L179.861 511.4C178.528 511.867 177.061 512.267 175.461 512.6C173.928 513 172.395 513.2 170.861 513.2ZM211.85 513.2C209.584 513.2 207.217 512.667 204.75 511.6C202.35 510.467 200.084 508.933 197.95 507H197.65L196.95 512H190.35V440.8H198.55V460.2L198.35 469C200.55 467.067 202.95 465.467 205.55 464.2C208.15 462.867 210.817 462.2 213.55 462.2C216.684 462.2 219.45 462.8 221.85 464C224.25 465.133 226.25 466.8 227.85 469C229.517 471.133 230.75 473.733 231.55 476.8C232.417 479.8 232.85 483.167 232.85 486.9C232.85 491.033 232.284 494.733 231.15 498C230.017 501.267 228.484 504.033 226.55 506.3C224.617 508.567 222.384 510.3 219.85 511.5C217.317 512.633 214.65 513.2 211.85 513.2ZM210.45 506.3C212.45 506.3 214.284 505.867 215.95 505C217.684 504.067 219.15 502.8 220.35 501.2C221.617 499.533 222.584 497.5 223.25 495.1C223.984 492.7 224.35 490 224.35 487C224.35 484.333 224.117 481.9 223.65 479.7C223.184 477.5 222.417 475.633 221.35 474.1C220.35 472.5 219.017 471.267 217.35 470.4C215.75 469.533 213.817 469.1 211.55 469.1C207.617 469.1 203.284 471.3 198.55 475.7V501.2C200.684 503.067 202.784 504.4 204.85 505.2C206.984 505.933 208.85 506.3 210.45 506.3ZM255.324 513.2C252.19 513.2 249.957 512.267 248.624 510.4C247.29 508.533 246.624 505.8 246.624 502.2V440.8H254.824V502.8C254.824 504.133 255.057 505.067 255.524 505.6C255.99 506.133 256.524 506.4 257.124 506.4C257.39 506.4 257.624 506.4 257.824 506.4C258.09 506.4 258.457 506.333 258.924 506.2L260.024 512.4C259.49 512.667 258.857 512.867 258.124 513C257.39 513.133 256.457 513.2 255.324 513.2ZM292.312 513.2C289.112 513.2 286.112 512.633 283.312 511.5C280.512 510.367 278.079 508.733 276.012 506.6C274.012 504.4 272.412 501.733 271.212 498.6C270.079 495.4 269.512 491.8 269.512 487.8C269.512 483.733 270.145 480.133 271.412 477C272.679 473.8 274.379 471.1 276.512 468.9C278.645 466.7 281.112 465.033 283.912 463.9C286.779 462.767 289.779 462.2 292.912 462.2C296.112 462.2 298.845 462.767 301.112 463.9C303.379 465.033 305.379 466.367 307.112 467.9L302.912 473.3C301.512 472.033 300.012 471 298.412 470.2C296.879 469.4 295.145 469 293.212 469C291.012 469 288.979 469.467 287.112 470.4C285.245 471.267 283.645 472.533 282.312 474.2C280.979 475.867 279.912 477.867 279.112 480.2C278.379 482.467 278.012 485 278.012 487.8C278.012 490.6 278.379 493.133 279.112 495.4C279.845 497.667 280.845 499.633 282.112 501.3C283.445 502.9 285.045 504.167 286.912 505.1C288.779 505.967 290.812 506.4 293.012 506.4C295.279 506.4 297.345 505.933 299.212 505C301.145 504 302.879 502.833 304.412 501.5L308.012 507C305.812 508.933 303.379 510.467 300.712 511.6C298.045 512.667 295.245 513.2 292.312 513.2ZM319.718 512V440.8H327.918V460.2L327.618 470.2C329.951 468 332.384 466.133 334.918 464.6C337.451 463 340.418 462.2 343.818 462.2C348.951 462.2 352.684 463.8 355.018 467C357.418 470.2 358.618 474.933 358.618 481.2V512H350.418V482.3C350.418 477.7 349.684 474.4 348.218 472.4C346.751 470.333 344.418 469.3 341.218 469.3C338.684 469.3 336.451 469.933 334.518 471.2C332.584 472.467 330.384 474.333 327.918 476.8V512H319.718ZM394.812 513.2C391.545 513.2 388.479 512.633 385.612 511.5C382.812 510.3 380.345 508.633 378.212 506.5C376.145 504.3 374.512 501.633 373.312 498.5C372.112 495.367 371.512 491.8 371.512 487.8C371.512 483.8 372.112 480.233 373.312 477.1C374.579 473.9 376.212 471.2 378.212 469C380.279 466.8 382.612 465.133 385.212 464C387.812 462.8 390.512 462.2 393.312 462.2C396.379 462.2 399.112 462.733 401.512 463.8C403.979 464.867 406.012 466.4 407.612 468.4C409.279 470.4 410.545 472.8 411.412 475.6C412.279 478.4 412.712 481.533 412.712 485C412.712 485.867 412.679 486.733 412.612 487.6C412.612 488.4 412.545 489.1 412.412 489.7H379.612C379.945 494.9 381.545 499.033 384.412 502.1C387.345 505.1 391.145 506.6 395.812 506.6C398.145 506.6 400.279 506.267 402.212 505.6C404.212 504.867 406.112 503.933 407.912 502.8L410.812 508.2C408.679 509.533 406.312 510.7 403.712 511.7C401.112 512.7 398.145 513.2 394.812 513.2ZM379.512 483.8H405.512C405.512 478.867 404.445 475.133 402.312 472.6C400.245 470 397.312 468.7 393.512 468.7C391.779 468.7 390.112 469.033 388.512 469.7C386.979 470.367 385.579 471.367 384.312 472.7C383.045 473.967 381.979 475.533 381.112 477.4C380.312 479.267 379.779 481.4 379.512 483.8ZM444.921 513.2C441.721 513.2 438.721 512.633 435.921 511.5C433.121 510.367 430.688 508.733 428.621 506.6C426.621 504.4 425.021 501.733 423.821 498.6C422.688 495.4 422.121 491.8 422.121 487.8C422.121 483.733 422.755 480.133 424.021 477C425.288 473.8 426.988 471.1 429.121 468.9C431.255 466.7 433.721 465.033 436.521 463.9C439.388 462.767 442.388 462.2 445.521 462.2C448.721 462.2 451.455 462.767 453.721 463.9C455.988 465.033 457.988 466.367 459.721 467.9L455.521 473.3C454.121 472.033 452.621 471 451.021 470.2C449.488 469.4 447.755 469 445.821 469C443.621 469 441.588 469.467 439.721 470.4C437.855 471.267 436.255 472.533 434.921 474.2C433.588 475.867 432.521 477.867 431.721 480.2C430.988 482.467 430.621 485 430.621 487.8C430.621 490.6 430.988 493.133 431.721 495.4C432.455 497.667 433.455 499.633 434.721 501.3C436.055 502.9 437.655 504.167 439.521 505.1C441.388 505.967 443.421 506.4 445.621 506.4C447.888 506.4 449.955 505.933 451.821 505C453.755 504 455.488 502.833 457.021 501.5L460.621 507C458.421 508.933 455.988 510.467 453.321 511.6C450.655 512.667 447.855 513.2 444.921 513.2ZM472.327 512V440.8H480.427V489H480.727L501.427 463.4H510.527L494.227 482.9L512.727 512H503.727L489.527 488.6L480.427 499.2V512H472.327Z" fill="#3F4764"/>
<mask id="mask0_2:2" style="mask-type:alpha" maskUnits="userSpaceOnUse" x="43" y="-1" width="562" height="650">
<path id="hex border_2" d="M48.78 165.21V482.93L323.93 641.79L599.08 482.93V165.21L323.93 6.35001L48.78 165.21Z" fill="white" stroke="#5E6A97" stroke-width="11"/>
</mask>
<g mask="url(#mask0_2:2)">
<path id="check mark" d="M394.175 142.342L388.847 137.094L383.583 142.408L355.354 170.908L350.174 176.138L355.307 181.415L420.327 248.25L425.655 253.726L431.032 248.298L571.473 106.498L576.522 101.4L571.653 96.1302L542.978 65.0957L537.657 59.3375L532.14 64.9078L425.191 172.894L394.175 142.342Z" fill="#368180" stroke="#D9DCE7" stroke-width="15"/>
</g>
</g>
<defs>
<clipPath id="clip0_2:2">
<rect width="648" height="648" fill="white"/>
</clipPath>
</defs>
</svg>
