<svg width="648" height="648" viewBox="0 0 648 648" fill="none" xmlns="http://www.w3.org/2000/svg">
<g id="tblcheck" clip-path="url(#clip0_120:139)">
<g id="hex background">
<path id="Vector" d="M48.78 165.21V482.93L323.93 641.79L599.08 482.93V165.21L323.93 6.35001L48.78 165.21Z" fill="#D9DCE7"/>
</g>
<path id="hex border" d="M48.78 165.21V482.93L323.93 641.79L599.08 482.93V165.21L323.93 6.35001L48.78 165.21Z" stroke="#3F4764" stroke-width="11"/>
<g id="table">
<g id="Group">
<g id="Group_2">
<path id="Vector_2" d="M464 162.131H185V216.718H464V162.131Z" fill="#5E6A97"/>
</g>
</g>
<g id="Group_3">
<g id="Group_4">
<path id="Vector_3" d="M263.848 234.913H185V283.434H263.848V234.913Z" fill="#5E6A97"/>
</g>
</g>
<g id="Group_5">
<g id="Group_6">
<path id="Vector_4" d="M263.848 368.348H185V416.869H263.848V368.348Z" fill="#5E6A97"/>
</g>
</g>
<g id="Group_7">
<g id="Group_8">
<path id="Vector_5" d="M263.848 301.63H185V350.152H263.848V301.63Z" fill="#5E6A97"/>
</g>
</g>
<g id="Group_9">
<g id="Group_10">
<path id="Vector_6" d="M366.957 234.913H282.044V283.434H366.957V234.913Z" fill="#5E6A97"/>
</g>
</g>
<g id="Group_11">
<g id="Group_12">
<path id="Vector_7" d="M366.957 368.348H282.044V416.869H366.957V368.348Z" fill="#5E6A97"/>
</g>
</g>
<g id="Group_13">
<g id="Group_14">
<path id="Vector_8" d="M366.957 301.63H282.044V350.152H366.957V301.63Z" fill="#5E6A97"/>
</g>
</g>
<g id="Group_15">
<g id="Group_16">
<path id="Vector_9" d="M464 234.913H385.152V283.434H464V234.913Z" fill="#5E6A97"/>
</g>
</g>
<g id="Group_17">
<g id="Group_18">
<path id="Vector_10" d="M464 368.348H385.152V416.869H464V368.348Z" fill="#5E6A97"/>
</g>
</g>
<g id="Group_19">
<g id="Group_20">
<path id="Vector_11" d="M464 301.63H385.152V350.152H464V301.63Z" fill="#5E6A97"/>
</g>
</g>
</g>
<path id="www.rstudio.com" d="M328.494 627.994L321.296 620.926L322.75 620.086L326.808 624.233C327.133 624.584 327.447 624.927 327.747 625.261C328.048 625.595 328.352 625.936 328.66 626.282L328.729 626.242C328.595 625.796 328.464 625.355 328.336 624.921C328.202 624.475 328.073 624.026 327.951 623.573L326.44 617.956L327.825 617.156L331.952 621.263C332.289 621.607 332.614 621.943 332.926 622.271C333.25 622.592 333.572 622.922 333.891 623.262L333.96 623.222C333.826 622.776 333.689 622.339 333.55 621.911C333.411 621.483 333.27 621.041 333.13 620.583L331.549 615.006L332.9 614.226L335.509 623.944L333.777 624.944L329.954 621.123C329.617 620.779 329.289 620.437 328.97 620.098C328.662 619.752 328.333 619.396 327.983 619.028L327.913 619.068C328.068 619.549 328.215 620.018 328.356 620.476C328.49 620.921 328.617 621.38 328.734 621.851L330.157 627.034L328.494 627.994ZM340.32 621.166L333.122 614.098L334.576 613.258L338.634 617.406C338.959 617.756 339.273 618.099 339.573 618.433C339.874 618.768 340.178 619.108 340.486 619.454L340.555 619.414C340.421 618.968 340.29 618.528 340.162 618.093C340.028 617.647 339.899 617.198 339.777 616.746L338.266 611.128L339.651 610.328L343.778 614.436C344.115 614.78 344.44 615.116 344.752 615.443C345.076 615.764 345.398 616.095 345.717 616.434L345.786 616.394C345.652 615.948 345.515 615.511 345.376 615.083C345.237 614.656 345.096 614.213 344.956 613.756L343.375 608.178L344.726 607.398L347.335 617.116L345.603 618.116L341.78 614.296C341.443 613.951 341.115 613.61 340.796 613.27C340.488 612.925 340.159 612.568 339.809 612.201L339.739 612.241C339.894 612.721 340.041 613.19 340.182 613.648C340.316 614.094 340.442 614.552 340.56 615.023L341.983 620.206L340.32 621.166ZM352.146 614.338L344.948 607.271L346.402 606.431L350.46 610.578C350.785 610.929 351.098 611.271 351.399 611.606C351.7 611.94 352.004 612.28 352.312 612.626L352.381 612.586C352.247 612.14 352.116 611.7 351.988 611.266C351.854 610.82 351.725 610.37 351.603 609.918L350.092 604.301L351.477 603.501L355.604 607.608C355.941 607.952 356.266 608.288 356.578 608.616C356.902 608.937 357.224 609.267 357.543 609.606L357.612 609.566C357.478 609.12 357.341 608.683 357.202 608.256C357.063 607.828 356.922 607.385 356.781 606.928L355.201 601.351L356.552 600.571L359.161 610.288L357.429 611.288L353.606 607.468C353.269 607.124 352.941 606.782 352.622 606.443C352.314 606.097 351.985 605.74 351.635 605.373L351.565 605.413C351.72 605.894 351.867 606.363 352.008 606.82C352.142 607.266 352.268 607.724 352.386 608.195L353.809 613.378L352.146 614.338ZM362.792 608.469C362.504 608.635 362.199 608.681 361.878 608.604C361.561 608.51 361.313 608.307 361.133 607.995C360.94 607.66 360.885 607.338 360.968 607.028C361.056 606.7 361.244 606.453 361.532 606.286C361.81 606.126 362.106 606.094 362.423 606.188C362.744 606.264 363.001 606.47 363.194 606.805C363.374 607.117 363.42 607.436 363.333 607.764C363.25 608.074 363.07 608.309 362.792 608.469ZM365.635 606.551L360.775 598.133L361.952 597.453L362.954 598.907L363.006 598.877C362.988 598.179 363.091 597.558 363.315 597.013C363.551 596.461 363.911 596.045 364.396 595.765C364.731 595.572 365.064 595.456 365.397 595.418L365.839 596.825C365.674 596.859 365.527 596.898 365.398 596.941C365.27 596.985 365.119 597.057 364.945 597.157C364.587 597.363 364.295 597.724 364.07 598.24C363.855 598.748 363.81 599.444 363.935 600.327L367.055 605.731L365.635 606.551ZM373.285 602.411C372.685 602.757 372.05 602.978 371.38 603.072C370.711 603.166 370.078 603.162 369.48 603.06L369.64 601.698C370.183 601.785 370.698 601.81 371.186 601.775C371.685 601.733 372.189 601.566 372.697 601.272C373.251 600.952 373.594 600.585 373.724 600.171C373.855 599.757 373.813 599.365 373.6 598.996C373.473 598.777 373.305 598.619 373.097 598.524C372.888 598.429 372.658 598.377 372.406 598.369C372.16 598.342 371.894 598.349 371.61 598.39C371.326 598.431 371.042 598.471 370.757 598.512C370.397 598.582 370.03 598.64 369.657 598.686C369.276 598.721 368.912 598.716 368.563 598.671C368.218 598.608 367.898 598.493 367.601 598.326C367.304 598.158 367.053 597.896 366.846 597.538C366.653 597.203 366.536 596.854 366.496 596.492C366.462 596.112 366.505 595.748 366.628 595.4C366.755 595.034 366.965 594.69 367.256 594.368C367.541 594.034 367.908 593.737 368.358 593.477C368.89 593.171 369.428 592.983 369.973 592.914C370.53 592.839 371.047 592.841 371.524 592.92L371.368 594.211C370.953 594.158 370.549 594.152 370.158 594.194C369.766 594.235 369.385 594.362 369.016 594.576C368.485 594.882 368.162 595.23 368.048 595.62C367.945 596.002 367.987 596.355 368.174 596.678C368.287 596.875 368.439 597.018 368.63 597.108C368.814 597.186 369.026 597.233 369.266 597.249C369.499 597.253 369.752 597.238 370.025 597.203C370.302 597.151 370.589 597.101 370.885 597.053C371.252 596.995 371.622 596.943 371.995 596.897C372.381 596.844 372.751 596.846 373.107 596.902C373.456 596.947 373.786 597.064 374.096 597.255C374.417 597.439 374.692 597.727 374.918 598.119C375.118 598.466 375.236 598.829 375.27 599.209C375.317 599.583 375.274 599.962 375.141 600.346C375.021 600.724 374.801 601.089 374.482 601.443C374.18 601.801 373.782 602.124 373.285 602.411ZM380.047 598.507C379.597 598.767 379.176 598.917 378.784 598.959C378.404 598.994 378.046 598.946 377.709 598.817C377.385 598.681 377.082 598.464 376.801 598.164C376.52 597.864 376.26 597.506 376.02 597.091L373.33 592.431L372.083 593.151L371.463 592.078L372.729 591.231L371.542 588.775L372.737 588.085L374.097 590.441L376.366 589.131L377.036 590.291L374.767 591.601L377.467 596.278C377.767 596.798 378.093 597.148 378.445 597.33C378.801 597.494 379.221 597.436 379.706 597.156C379.857 597.069 380.005 596.953 380.151 596.807C380.298 596.661 380.424 596.519 380.529 596.381L381.426 597.295C381.242 597.509 381.028 597.725 380.784 597.943C380.558 598.165 380.313 598.353 380.047 598.507ZM385.103 595.588C384.202 596.108 383.384 596.211 382.648 595.896C381.924 595.575 381.249 594.872 380.622 593.787L377.542 588.452L378.98 587.622L381.95 592.766C382.41 593.563 382.864 594.07 383.314 594.288C383.768 594.488 384.272 594.428 384.826 594.108C385.265 593.855 385.588 593.522 385.797 593.109C385.998 592.685 386.158 592.108 386.275 591.378L382.825 585.402L384.245 584.582L389.105 593L387.928 593.68L387.046 592.434L386.994 592.464C386.868 593.152 386.666 593.762 386.387 594.292C386.12 594.816 385.692 595.248 385.103 595.588ZM394.334 590.258C393.272 590.872 392.203 590.981 391.128 590.585C390.064 590.183 389.126 589.278 388.312 587.869C387.919 587.188 387.664 586.519 387.547 585.863C387.435 585.189 387.436 584.564 387.551 583.99C387.666 583.416 387.883 582.898 388.201 582.437C388.52 581.975 388.922 581.605 389.407 581.325C389.892 581.045 390.364 580.888 390.822 580.855C391.279 580.821 391.78 580.848 392.323 580.935L391.423 579.537L389.553 576.298L390.991 575.468L398.111 587.8L396.933 588.48L396.242 587.563L396.19 587.593C396.042 588.11 395.818 588.616 395.52 589.112C395.226 589.589 394.83 589.972 394.334 590.258ZM393.956 588.883C394.348 588.656 394.664 588.351 394.904 587.966C395.137 587.57 395.314 587.075 395.433 586.483L392.893 582.083C392.349 581.967 391.872 581.941 391.464 582.008C391.061 582.056 390.686 582.18 390.34 582.38C390.005 582.573 389.734 582.837 389.527 583.172C389.325 583.489 389.198 583.855 389.145 584.271C389.085 584.674 389.106 585.109 389.205 585.575C389.305 586.041 389.495 586.517 389.775 587.002C390.361 588.018 391.02 588.692 391.751 589.024C392.482 589.357 393.217 589.31 393.956 588.883ZM400.34 586.514L395.48 578.096L396.9 577.276L401.76 585.694L400.34 586.514ZM395.207 575.944C394.93 576.104 394.644 576.154 394.347 576.094C394.063 576.027 393.843 575.861 393.69 575.596C393.53 575.319 393.496 575.046 393.587 574.778C393.684 574.491 393.87 574.268 394.147 574.108C394.425 573.948 394.705 573.901 394.99 573.968C395.28 574.016 395.505 574.179 395.665 574.456C395.818 574.721 395.847 574.997 395.75 575.284C395.665 575.564 395.485 575.784 395.207 575.944ZM407.39 582.72C406.87 583.02 406.317 583.209 405.73 583.286C405.155 583.356 404.582 583.31 404.01 583.147C403.433 582.973 402.877 582.678 402.344 582.262C401.817 581.827 401.353 581.264 400.953 580.571C400.546 579.867 400.29 579.183 400.184 578.52C400.084 577.84 400.102 577.205 400.24 576.617C400.378 576.03 400.622 575.504 400.97 575.041C401.33 574.572 401.77 574.187 402.29 573.887C402.809 573.587 403.357 573.402 403.932 573.331C404.519 573.254 405.101 573.303 405.679 573.477C406.257 573.652 406.81 573.956 407.338 574.39C407.871 574.806 408.34 575.367 408.747 576.071C409.147 576.764 409.397 577.451 409.498 578.132C409.603 578.794 409.587 579.42 409.449 580.007C409.304 580.583 409.052 581.106 408.692 581.576C408.343 582.039 407.909 582.42 407.39 582.72ZM406.71 581.543C407.068 581.336 407.353 581.071 407.567 580.747C407.774 580.413 407.901 580.046 407.949 579.649C408.002 579.234 407.973 578.797 407.861 578.337C407.75 577.878 407.555 577.406 407.275 576.921C406.995 576.436 406.684 576.031 406.341 575.705C405.993 575.367 405.625 575.117 405.239 574.955C404.865 574.787 404.484 574.714 404.097 574.737C403.703 574.749 403.328 574.858 402.97 575.065C402.612 575.271 402.329 575.542 402.123 575.877C401.909 576.201 401.776 576.57 401.723 576.985C401.682 577.394 401.72 577.834 401.838 578.305C401.949 578.764 402.145 579.236 402.425 579.721C402.705 580.206 403.016 580.611 403.358 580.937C403.7 581.263 404.059 581.511 404.433 581.679C404.812 581.83 405.199 581.899 405.593 581.887C405.979 581.864 406.352 581.749 406.71 581.543ZM413.473 579.208C413.185 579.375 412.88 579.42 412.558 579.344C412.242 579.249 411.994 579.046 411.814 578.734C411.621 578.399 411.565 578.077 411.648 577.768C411.736 577.44 411.925 577.192 412.213 577.026C412.49 576.866 412.787 576.833 413.103 576.928C413.425 577.004 413.682 577.209 413.875 577.544C414.055 577.856 414.101 578.176 414.013 578.504C413.93 578.813 413.75 579.048 413.473 579.208ZM419.575 575.685C419.021 576.005 418.444 576.207 417.846 576.291C417.248 576.375 416.663 576.335 416.092 576.172C415.525 575.991 414.981 575.689 414.46 575.267C413.944 574.826 413.486 574.259 413.086 573.566C412.679 572.862 412.429 572.175 412.335 571.505C412.234 570.824 412.259 570.187 412.408 569.592C412.558 568.998 412.818 568.463 413.19 567.986C413.573 567.503 414.036 567.105 414.579 566.792C415.133 566.472 415.663 566.297 416.169 566.266C416.675 566.236 417.155 566.267 417.608 566.359L417.421 567.714C417.052 567.635 416.689 567.606 416.331 567.628C415.986 567.642 415.646 567.746 415.311 567.94C414.93 568.16 414.624 568.444 414.394 568.792C414.158 569.129 414.007 569.508 413.943 569.93C413.879 570.352 413.894 570.805 413.989 571.29C414.088 571.756 414.278 572.231 414.558 572.716C414.838 573.201 415.155 573.603 415.509 573.922C415.862 574.242 416.232 574.482 416.618 574.644C417.009 574.788 417.413 574.847 417.83 574.822C418.24 574.786 418.635 574.658 419.016 574.438C419.409 574.211 419.72 573.923 419.95 573.575C420.185 573.209 420.368 572.833 420.501 572.449L421.674 573.042C421.486 573.596 421.218 574.105 420.87 574.568C420.515 575.02 420.083 575.392 419.575 575.685ZM426.444 571.72C425.924 572.02 425.371 572.208 424.784 572.285C424.209 572.356 423.636 572.309 423.064 572.147C422.486 571.972 421.931 571.677 421.398 571.261C420.87 570.827 420.407 570.263 420.007 569.57C419.6 568.866 419.344 568.182 419.238 567.52C419.138 566.839 419.156 566.204 419.294 565.617C419.432 565.029 419.676 564.504 420.024 564.041C420.384 563.571 420.824 563.186 421.344 562.886C421.863 562.586 422.411 562.401 422.986 562.331C423.573 562.254 424.155 562.302 424.733 562.477C425.311 562.651 425.864 562.955 426.392 563.39C426.924 563.806 427.394 564.366 427.801 565.07C428.201 565.763 428.451 566.45 428.552 567.131C428.657 567.794 428.641 568.419 428.503 569.007C428.358 569.583 428.106 570.106 427.746 570.575C427.397 571.038 426.963 571.42 426.444 571.72ZM425.764 570.542C426.122 570.335 426.407 570.07 426.621 569.747C426.828 569.412 426.955 569.046 427.003 568.649C427.056 568.233 427.027 567.796 426.915 567.337C426.804 566.877 426.609 566.405 426.329 565.92C426.049 565.435 425.737 565.03 425.395 564.704C425.047 564.366 424.679 564.117 424.293 563.955C423.919 563.786 423.538 563.713 423.151 563.736C422.757 563.748 422.382 563.857 422.024 564.064C421.666 564.271 421.383 564.542 421.176 564.876C420.963 565.2 420.83 565.569 420.777 565.985C420.736 566.393 420.774 566.833 420.892 567.304C421.003 567.763 421.199 568.235 421.479 568.72C421.759 569.205 422.07 569.611 422.412 569.937C422.754 570.263 423.112 570.51 423.487 570.679C423.866 570.829 424.253 570.898 424.646 570.887C425.033 570.863 425.406 570.749 425.764 570.542ZM431.831 568.332L426.971 559.914L428.149 559.234L428.971 560.377L429.022 560.347C429.159 559.729 429.364 559.164 429.638 558.652C429.916 558.122 430.31 557.71 430.818 557.416C431.464 557.043 432.05 556.897 432.575 556.979C433.104 557.043 433.602 557.279 434.069 557.687C434.228 556.949 434.443 556.309 434.715 555.767C434.992 555.206 435.39 554.776 435.91 554.476C436.776 553.976 437.577 553.883 438.313 554.198C439.06 554.505 439.747 555.202 440.374 556.287L443.454 561.622L442.033 562.442L439.063 557.298C438.603 556.501 438.146 556.003 437.692 555.803C437.231 555.592 436.736 555.639 436.204 555.946C435.569 556.313 435.115 557.152 434.841 558.465L438.361 564.562L436.941 565.382L433.971 560.238C433.511 559.441 433.054 558.943 432.6 558.743C432.139 558.532 431.638 558.583 431.095 558.896C430.46 559.263 430.005 560.102 429.732 561.415L433.252 567.512L431.831 568.332Z" fill="#3F4764"/>
<path id="tblcheck_2" d="M170.861 513.2C168.261 513.2 166.061 512.8 164.261 512C162.528 511.2 161.095 510.1 159.961 508.7C158.895 507.3 158.128 505.6 157.661 503.6C157.195 501.6 156.961 499.4 156.961 497V470.1H149.761V463.9L157.361 463.4L158.361 449.8H165.261V463.4H178.361V470.1H165.261V497.1C165.261 500.1 165.795 502.433 166.861 504.1C167.995 505.7 169.961 506.5 172.761 506.5C173.628 506.5 174.561 506.367 175.561 506.1C176.561 505.833 177.461 505.533 178.261 505.2L179.861 511.4C178.528 511.867 177.061 512.267 175.461 512.6C173.928 513 172.395 513.2 170.861 513.2ZM211.85 513.2C209.584 513.2 207.217 512.667 204.75 511.6C202.35 510.467 200.084 508.933 197.95 507H197.65L196.95 512H190.35V440.8H198.55V460.2L198.35 469C200.55 467.067 202.95 465.467 205.55 464.2C208.15 462.867 210.817 462.2 213.55 462.2C216.684 462.2 219.45 462.8 221.85 464C224.25 465.133 226.25 466.8 227.85 469C229.517 471.133 230.75 473.733 231.55 476.8C232.417 479.8 232.85 483.167 232.85 486.9C232.85 491.033 232.284 494.733 231.15 498C230.017 501.267 228.484 504.033 226.55 506.3C224.617 508.567 222.384 510.3 219.85 511.5C217.317 512.633 214.65 513.2 211.85 513.2ZM210.45 506.3C212.45 506.3 214.284 505.867 215.95 505C217.684 504.067 219.15 502.8 220.35 501.2C221.617 499.533 222.584 497.5 223.25 495.1C223.984 492.7 224.35 490 224.35 487C224.35 484.333 224.117 481.9 223.65 479.7C223.184 477.5 222.417 475.633 221.35 474.1C220.35 472.5 219.017 471.267 217.35 470.4C215.75 469.533 213.817 469.1 211.55 469.1C207.617 469.1 203.284 471.3 198.55 475.7V501.2C200.684 503.067 202.784 504.4 204.85 505.2C206.984 505.933 208.85 506.3 210.45 506.3ZM255.324 513.2C252.19 513.2 249.957 512.267 248.624 510.4C247.29 508.533 246.624 505.8 246.624 502.2V440.8H254.824V502.8C254.824 504.133 255.057 505.067 255.524 505.6C255.99 506.133 256.524 506.4 257.124 506.4C257.39 506.4 257.624 506.4 257.824 506.4C258.09 506.4 258.457 506.333 258.924 506.2L260.024 512.4C259.49 512.667 258.857 512.867 258.124 513C257.39 513.133 256.457 513.2 255.324 513.2ZM292.312 513.2C289.112 513.2 286.112 512.633 283.312 511.5C280.512 510.367 278.079 508.733 276.012 506.6C274.012 504.4 272.412 501.733 271.212 498.6C270.079 495.4 269.512 491.8 269.512 487.8C269.512 483.733 270.145 480.133 271.412 477C272.679 473.8 274.379 471.1 276.512 468.9C278.645 466.7 281.112 465.033 283.912 463.9C286.779 462.767 289.779 462.2 292.912 462.2C296.112 462.2 298.845 462.767 301.112 463.9C303.379 465.033 305.379 466.367 307.112 467.9L302.912 473.3C301.512 472.033 300.012 471 298.412 470.2C296.879 469.4 295.145 469 293.212 469C291.012 469 288.979 469.467 287.112 470.4C285.245 471.267 283.645 472.533 282.312 474.2C280.979 475.867 279.912 477.867 279.112 480.2C278.379 482.467 278.012 485 278.012 487.8C278.012 490.6 278.379 493.133 279.112 495.4C279.845 497.667 280.845 499.633 282.112 501.3C283.445 502.9 285.045 504.167 286.912 505.1C288.779 505.967 290.812 506.4 293.012 506.4C295.279 506.4 297.345 505.933 299.212 505C301.145 504 302.879 502.833 304.412 501.5L308.012 507C305.812 508.933 303.379 510.467 300.712 511.6C298.045 512.667 295.245 513.2 292.312 513.2ZM319.718 512V440.8H327.918V460.2L327.618 470.2C329.951 468 332.384 466.133 334.918 464.6C337.451 463 340.418 462.2 343.818 462.2C348.951 462.2 352.684 463.8 355.018 467C357.418 470.2 358.618 474.933 358.618 481.2V512H350.418V482.3C350.418 477.7 349.684 474.4 348.218 472.4C346.751 470.333 344.418 469.3 341.218 469.3C338.684 469.3 336.451 469.933 334.518 471.2C332.584 472.467 330.384 474.333 327.918 476.8V512H319.718ZM394.812 513.2C391.545 513.2 388.479 512.633 385.612 511.5C382.812 510.3 380.345 508.633 378.212 506.5C376.145 504.3 374.512 501.633 373.312 498.5C372.112 495.367 371.512 491.8 371.512 487.8C371.512 483.8 372.112 480.233 373.312 477.1C374.579 473.9 376.212 471.2 378.212 469C380.279 466.8 382.612 465.133 385.212 464C387.812 462.8 390.512 462.2 393.312 462.2C396.379 462.2 399.112 462.733 401.512 463.8C403.979 464.867 406.012 466.4 407.612 468.4C409.279 470.4 410.545 472.8 411.412 475.6C412.279 478.4 412.712 481.533 412.712 485C412.712 485.867 412.679 486.733 412.612 487.6C412.612 488.4 412.545 489.1 412.412 489.7H379.612C379.945 494.9 381.545 499.033 384.412 502.1C387.345 505.1 391.145 506.6 395.812 506.6C398.145 506.6 400.279 506.267 402.212 505.6C404.212 504.867 406.112 503.933 407.912 502.8L410.812 508.2C408.679 509.533 406.312 510.7 403.712 511.7C401.112 512.7 398.145 513.2 394.812 513.2ZM379.512 483.8H405.512C405.512 478.867 404.445 475.133 402.312 472.6C400.245 470 397.312 468.7 393.512 468.7C391.779 468.7 390.112 469.033 388.512 469.7C386.979 470.367 385.579 471.367 384.312 472.7C383.045 473.967 381.979 475.533 381.112 477.4C380.312 479.267 379.779 481.4 379.512 483.8ZM444.921 513.2C441.721 513.2 438.721 512.633 435.921 511.5C433.121 510.367 430.688 508.733 428.621 506.6C426.621 504.4 425.021 501.733 423.821 498.6C422.688 495.4 422.121 491.8 422.121 487.8C422.121 483.733 422.755 480.133 424.021 477C425.288 473.8 426.988 471.1 429.121 468.9C431.255 466.7 433.721 465.033 436.521 463.9C439.388 462.767 442.388 462.2 445.521 462.2C448.721 462.2 451.455 462.767 453.721 463.9C455.988 465.033 457.988 466.367 459.721 467.9L455.521 473.3C454.121 472.033 452.621 471 451.021 470.2C449.488 469.4 447.755 469 445.821 469C443.621 469 441.588 469.467 439.721 470.4C437.855 471.267 436.255 472.533 434.921 474.2C433.588 475.867 432.521 477.867 431.721 480.2C430.988 482.467 430.621 485 430.621 487.8C430.621 490.6 430.988 493.133 431.721 495.4C432.455 497.667 433.455 499.633 434.721 501.3C436.055 502.9 437.655 504.167 439.521 505.1C441.388 505.967 443.421 506.4 445.621 506.4C447.888 506.4 449.955 505.933 451.821 505C453.755 504 455.488 502.833 457.021 501.5L460.621 507C458.421 508.933 455.988 510.467 453.321 511.6C450.655 512.667 447.855 513.2 444.921 513.2ZM472.327 512V440.8H480.427V489H480.727L501.427 463.4H510.527L494.227 482.9L512.727 512H503.727L489.527 488.6L480.427 499.2V512H472.327Z" fill="#3F4764"/>
<mask id="mask0_120:139" style="mask-type:alpha" maskUnits="userSpaceOnUse" x="43" y="-1" width="562" height="650">
<path id="hex border_2" d="M48.78 165.21V482.93L323.93 641.79L599.08 482.93V165.21L323.93 6.35001L48.78 165.21Z" fill="white" stroke="#5E6A97" stroke-width="11"/>
</mask>
<g mask="url(#mask0_120:139)">
<path id="check mark" d="M394.175 142.342L388.847 137.094L383.583 142.408L355.354 170.908L350.174 176.138L355.307 181.415L420.327 248.25L425.655 253.726L431.032 248.298L571.473 106.498L576.522 101.4L571.653 96.1302L542.978 65.0957L537.657 59.3375L532.14 64.9078L425.191 172.894L394.175 142.342Z" fill="#368180" stroke="#D9DCE7" stroke-width="15"/>
</g>
</g>
<defs>
<clipPath id="clip0_120:139">
<rect width="648" height="648" fill="white"/>
</clipPath>
</defs>
</svg>
